# xmcd
#
# Track frame offsets:
#  150
#  14740
#  37907
#  56167
#  73282
#  83457
#  101040
#  118567
#  148432
#  162340
#  176695
#  204542
#  221785
#
# Disc length: 3107 seconds
#
# Revision: 0
# Processed by: cddbd v1.5.1PL2 Copyright (c) Steve Scherf et al.
# Submitted via: Collectorz.com_Music_Collector 6.9
#
DISCID=c70c210d
DTITLE=Various Artist - Top Southern Gospel Hits
DYEAR=1900
DGENRE=Gospel
TTITLE0=The Freemans - Hello In Heaven
TTITLE1=Tony Gore and Majesty - Meanwhile In The Garden
TTITLE2=The Hoppers - Anchor To The Power Of The Cross
TTITLE3=The Ruppes - Under His Wings
TTITLE4=The Cathedrals - Still Drinking Water From The Well
TTITLE5=The New Hinsons - Oasis
TTITLE6=The Bishops - You Can't Ask Too Much Of My God
TTITLE7=The Perrys - God Sent Angels
TTITLE8=The Crabb Family - Where We'll Never Die
TTITLE9=The Lesters - He'll Only Need It For The Weekend
TTITLE10=The McGruders - A Great Homecoming
TTITLE11=The Kevin Spencer Family - The Blood Is Still There
TTITLE12=Common Bond - Tower Of Powre
EXTD=
EXTT0=
EXTT1=
EXTT2=
EXTT3=
EXTT4=
EXTT5=
EXTT6=
EXTT7=
EXTT8=
EXTT9=
EXTT10=
EXTT11=
EXTT12=
PLAYORDER=
